<mxfile host="app.diagrams.net" agent="Mozilla/5.0 (Windows NT 10.0; Win64; x64) AppleWebKit/537.36 (KHTML, like Gecko) Chrome/132.0.0.0 Safari/537.36" version="26.0.10">
  <diagram id="Gyp8LMhs1wYG19DHn65K" name="Seite-1">
    <mxGraphModel dx="1877" dy="569" grid="1" gridSize="10" guides="1" tooltips="1" connect="1" arrows="1" fold="1" page="1" pageScale="1" pageWidth="827" pageHeight="1169" math="0" shadow="0">
      <root>
        <mxCell id="0" />
        <mxCell id="1" parent="0" />
        <mxCell id="aq3gI_2E2L21ljMqtWCf-1" value="" style="rounded=0;whiteSpace=wrap;html=1;fillColor=#B5B5B5;" parent="1" vertex="1">
          <mxGeometry x="-10" y="20" width="880" height="580" as="geometry" />
        </mxCell>
        <mxCell id="ZRPVYn8o6elYzsT0ZDa3-11" value="" style="rounded=1;whiteSpace=wrap;html=1;fillColor=#F9A800;" parent="1" vertex="1">
          <mxGeometry x="270" y="90" width="250" height="140" as="geometry" />
        </mxCell>
        <mxCell id="ZRPVYn8o6elYzsT0ZDa3-3" value="" style="shape=umlActor;verticalLabelPosition=bottom;verticalAlign=top;html=1;outlineConnect=0;fillColor=#F9A800;" parent="1" vertex="1">
          <mxGeometry x="460" y="100" width="30" height="60" as="geometry" />
        </mxCell>
        <mxCell id="ZRPVYn8o6elYzsT0ZDa3-10" value="&lt;h1&gt;Person&lt;/h1&gt;&lt;p&gt;Hat ein gemietetes Lager bei dem Unternehmen Lagerage GmbH um dort Persönliche Gegenstände zu lagern.&lt;/p&gt;" style="text;html=1;strokeColor=none;fillColor=none;spacing=5;spacingTop=-20;whiteSpace=wrap;overflow=hidden;rounded=0;" parent="1" vertex="1">
          <mxGeometry x="280" y="110" width="190" height="120" as="geometry" />
        </mxCell>
        <mxCell id="ZRPVYn8o6elYzsT0ZDa3-14" value="" style="rounded=1;whiteSpace=wrap;html=1;fillColor=#fff2cc;strokeColor=#d6b656;" parent="1" vertex="1">
          <mxGeometry x="20" y="280" width="350" height="120" as="geometry" />
        </mxCell>
        <mxCell id="ZRPVYn8o6elYzsT0ZDa3-15" value="&lt;h1&gt;&lt;font style=&quot;font-size: 20px;&quot;&gt;Buchungssystem der Lagerage&lt;/font&gt;&lt;/h1&gt;&lt;div&gt;Website der Lagerage, welches dem Anwender ermöglicht ein Lager online zu Buchen.&lt;/div&gt;" style="text;html=1;strokeColor=none;fillColor=none;spacing=5;spacingTop=-20;whiteSpace=wrap;overflow=hidden;rounded=0;" parent="1" vertex="1">
          <mxGeometry x="35" y="300" width="320" height="90" as="geometry" />
        </mxCell>
        <mxCell id="ZRPVYn8o6elYzsT0ZDa3-16" value="" style="rounded=1;whiteSpace=wrap;html=1;fontSize=20;fillColor=#F9A800;" parent="1" vertex="1">
          <mxGeometry x="430" y="280" width="350" height="120" as="geometry" />
        </mxCell>
        <mxCell id="ZRPVYn8o6elYzsT0ZDa3-18" value="&lt;h1 style=&quot;font-size: 24px;&quot;&gt;Visual Object Recognition&lt;/h1&gt;&lt;div style=&quot;font-size: 12px;&quot;&gt;Software zum erkennen der Eingelagerten Objekte, welche diese dann inventarisiert und auf der Website vom Benutzer abgefragt werden können.&lt;/div&gt;&lt;p&gt;&lt;br&gt;&lt;/p&gt;" style="text;html=1;strokeColor=none;fillColor=none;spacing=5;spacingTop=-20;whiteSpace=wrap;overflow=hidden;rounded=0;fontSize=20;" parent="1" vertex="1">
          <mxGeometry x="440" y="300" width="350" height="100" as="geometry" />
        </mxCell>
        <mxCell id="ZRPVYn8o6elYzsT0ZDa3-19" value="" style="endArrow=classic;html=1;rounded=0;fontSize=12;exitX=0;exitY=0.75;exitDx=0;exitDy=0;entryX=0.5;entryY=0;entryDx=0;entryDy=0;" parent="1" source="ZRPVYn8o6elYzsT0ZDa3-11" target="ZRPVYn8o6elYzsT0ZDa3-14" edge="1">
          <mxGeometry width="50" height="50" relative="1" as="geometry">
            <mxPoint x="390" y="290" as="sourcePoint" />
            <mxPoint x="440" y="240" as="targetPoint" />
          </mxGeometry>
        </mxCell>
        <mxCell id="ZRPVYn8o6elYzsT0ZDa3-20" value="" style="endArrow=classic;html=1;rounded=0;fontSize=12;exitX=1;exitY=0.75;exitDx=0;exitDy=0;entryX=0.5;entryY=0;entryDx=0;entryDy=0;" parent="1" source="ZRPVYn8o6elYzsT0ZDa3-11" target="ZRPVYn8o6elYzsT0ZDa3-16" edge="1">
          <mxGeometry width="50" height="50" relative="1" as="geometry">
            <mxPoint x="390" y="290" as="sourcePoint" />
            <mxPoint x="440" y="240" as="targetPoint" />
          </mxGeometry>
        </mxCell>
        <mxCell id="ZRPVYn8o6elYzsT0ZDa3-21" value="Nutzer meldet sich auf Website an" style="text;html=1;strokeColor=none;fillColor=none;align=center;verticalAlign=middle;whiteSpace=wrap;rounded=0;fontSize=12;" parent="1" vertex="1">
          <mxGeometry x="220" y="240" width="150" height="30" as="geometry" />
        </mxCell>
        <mxCell id="ZRPVYn8o6elYzsT0ZDa3-22" value="Nutzer meldet sich bei Erkennungssoftware an" style="text;html=1;strokeColor=none;fillColor=none;align=center;verticalAlign=middle;whiteSpace=wrap;rounded=0;fontSize=12;" parent="1" vertex="1">
          <mxGeometry x="585" y="240" width="145" height="30" as="geometry" />
        </mxCell>
      </root>
    </mxGraphModel>
  </diagram>
</mxfile>
